<svg id="Groupe_15398" data-name="Groupe 15398" xmlns="http://www.w3.org/2000/svg" width="25" height="25" viewBox="0 0 25 25">
  <g id="Groupe_15399" data-name="Groupe 15399">
    <circle id="Ellipse_3113" data-name="Ellipse 3113" cx="12.5" cy="12.5" r="12.5" fill="#fff" opacity="0"/>
    <path id="noun-message-line-4531567" d="M946.535,536.535v4.941h0a4.466,4.466,0,0,1-4.182,4.7v1.169a1.453,1.453,0,0,1-1.463,1.442,1.478,1.478,0,0,1-.813-.243l-3.555-2.338h-3.157A4.528,4.528,0,0,1,928.555,542a4.151,4.151,0,0,1,0-.52v-4.94a4.509,4.509,0,0,1,4.281-4.735,4.733,4.733,0,0,1,.528,0h8.366a4.529,4.529,0,0,1,4.81,4.215,4.578,4.578,0,0,1,0,.521Z" transform="translate(-925.047 -528.292)" fill="none" stroke="#1a2552" stroke-linecap="round" stroke-linejoin="round" stroke-width="2"/>
  </g>
</svg>
