<?xml version="1.0" encoding="UTF-8"?>
<svg xmlns="http://www.w3.org/2000/svg" xmlns:xlink="http://www.w3.org/1999/xlink" width="40px" height="40px" viewBox="0 0 60 60" version="1.1">
<g id="surface1">
<path style=" stroke:none;fill-rule:nonzero;fill:rgb(100%,100%,100%);fill-opacity:1;" d="M 60 30 C 60 46.570312 46.570312 60 30 60 C 13.429688 60 0 46.570312 0 30 C 0 13.429688 13.429688 0 30 0 C 46.570312 0 60 13.429688 60 30 Z M 60 30 "/>
<path style="fill-rule:nonzero;fill:rgb(10.196078%,14.509804%,32.156863%);fill-opacity:1;stroke-width:0.5;stroke-linecap:butt;stroke-linejoin:miter;stroke:rgb(10.196078%,14.509804%,32.156863%);stroke-opacity:1;stroke-miterlimit:4;" d="M 19 5.25 L 15.325521 5.25 C 15.1875 5.25 15.054688 5.231771 14.924479 5.1875 L 9.546875 3.390625 C 9.265625 3.296875 8.971354 3.25 8.674479 3.25 L 5 3.25 C 3.481771 3.25 2.25 4.481771 2.25 6 L 2.25 16 C 2.25 17.518229 3.481771 18.75 5 18.75 L 8.674479 18.75 C 8.8125 18.75 8.945312 18.768229 9.075521 18.8125 L 14.460938 20.611979 C 14.736979 20.705729 15.033854 20.752604 15.328125 20.752604 L 19 20.752604 C 20.518229 20.752604 21.75 19.518229 21.75 18 L 21.75 8 C 21.75 6.481771 20.518229 5.25 19 5.25 Z M 20.25 18 C 20.25 18.690104 19.690104 19.25 19 19.25 L 15.325521 19.25 C 15.1875 19.25 15.054688 19.231771 14.924479 19.1875 L 9.75 17.460938 L 9.75 8 C 9.75 7.585938 9.414062 7.25 9 7.25 C 8.585938 7.25 8.25 7.585938 8.25 8 L 8.25 17.25 L 5 17.25 C 4.309896 17.25 3.75 16.690104 3.75 16 L 3.75 6 C 3.75 5.309896 4.309896 4.75 5 4.75 L 8.674479 4.75 C 8.8125 4.75 8.945312 4.768229 9.075521 4.8125 L 14.25 6.539062 L 14.25 16 C 14.25 16.414062 14.585938 16.75 15 16.75 C 15.414062 16.75 15.75 16.414062 15.75 16 L 15.75 6.75 L 19 6.75 C 19.690104 6.75 20.25 7.309896 20.25 8 Z M 20.25 18 " transform="matrix(1.5,0,0,1.5,12,12)"/>
</g>
</svg>
