<svg xmlns="http://www.w3.org/2000/svg" width="142.98" height="45" viewBox="0 0 142.98 45">
  <g id="Pepolls-Logo-horizontal-1" transform="translate(-83.047 -368.777)">
    <g id="Pepolls_naming" data-name="Pepolls naming" transform="translate(133.672 380.065)">
      <path id="P" d="M393.042,440.739c0,3.689-2.655,6.12-6.792,6.12h-3.773v7.406h-4.165V434.619h7.938c4.165,0,6.792,2.4,6.792,6.12m-4.22,0c0-1.453-.95-2.487-2.795-2.487h-3.549v4.974h3.549c1.844,0,2.795-1.034,2.795-2.487" transform="translate(-378.312 -434.619)" fill="#1a2552"/>
      <path id="e" d="M471.86,474.746a3.214,3.214,0,0,0,3.229-1.735l3.015,2c-1.094,1.6-2.909,3.015-6.351,3.015a7.132,7.132,0,0,1-7.525-7.364,7.289,7.289,0,0,1,7.256-7.364,7.045,7.045,0,0,1,7.231,7.07,10.817,10.817,0,0,1-.08,1.494H468.1a3.66,3.66,0,0,0,3.763,2.881m3.148-5.469a3.378,3.378,0,0,0-3.415-2.989,3.459,3.459,0,0,0-3.549,2.989Z" transform="translate(-449.497 -458.381)" fill="#1a2552"/>
      <path id="p-2" data-name="p" d="M573.442,470.657c0,4.19-2.936,7.366-6.993,7.366a5.585,5.585,0,0,1-4.03-1.521v7.145h-3.95V463.293h3.657v1.868a5.732,5.732,0,0,1,4.433-1.868c4.057,0,6.886,3.149,6.886,7.364m-3.923,0a3.647,3.647,0,0,0-3.6-3.9,3.894,3.894,0,1,0,3.6,3.9" transform="translate(-527.579 -458.375)" fill="#1a2552"/>
      <path id="o" d="M652.982,470.663a7.609,7.609,0,1,1,7.605,7.364,7.243,7.243,0,0,1-7.605-7.364m11.26-.027a3.647,3.647,0,1,0-7.286.027,3.648,3.648,0,1,0,7.285-.027" transform="translate(-605.887 -458.382)" fill="#1a2552"/>
      <rect id="l" width="3.881" height="19.647" transform="translate(64.165)" fill="#1a2552"/>
      <rect id="l-2" data-name="l" width="3.881" height="19.647" transform="translate(70.825)" fill="#1a2552"/>
      <path id="s" d="M823.49,474.311l3.336-1.28a2.793,2.793,0,0,0,2.962,1.948c1.174,0,1.868-.48,1.868-1.28,0-2.455-7.5-1.281-7.5-6.112,0-2.668,2.188-4.3,5.6-4.3,2.8,0,4.83,1.147,5.417,3.1l-3.336,1.281a2.089,2.089,0,0,0-2.135-1.441c-1.067,0-1.654.429-1.654,1.148,0,2.268,7.526.907,7.526,6.084,0,2.828-2.324,4.563-5.924,4.563-3.122,0-5.364-1.281-6.165-3.709" transform="translate(-747.16 -458.374)" fill="#1a2552"/>
    </g>
    <g id="Pepolls_icon" data-name="Pepolls icon" transform="translate(83.047 368.777)">
      <path id="Tracé_15355" data-name="Tracé 15355" d="M.97,13.394C2.492,6.03,7.176,1.928,14.482.689A47.129,47.129,0,0,1,30.676.716C38.2,2.045,42.722,6.386,44.161,13.862a45,45,0,0,1-.018,17.389C42.6,38.564,37.8,43.079,30.52,44.313a47.134,47.134,0,0,1-16.195-.026C6.8,42.958,2.261,38.4.821,30.925A43.559,43.559,0,0,1,.97,13.4Z" transform="translate(-0.003 -0.001)" fill="#0857e0"/>
      <path id="P-3" data-name="P" d="M412.675,346.592a2.813,2.813,0,0,1-2.812-2.812v-2.815a8.447,8.447,0,0,1,8.436-8.436h2.813a2.816,2.816,0,0,0,2.812-2.812v-2.81a2.816,2.816,0,0,0-2.812-2.812h-5.624a2.816,2.816,0,0,0-2.812,2.813v2.815a2.812,2.812,0,1,1-5.625,0v-2.815a8.447,8.447,0,0,1,8.436-8.436h5.626a8.447,8.447,0,0,1,8.436,8.436v2.81a8.447,8.447,0,0,1-8.436,8.436H418.3a2.816,2.816,0,0,0-2.812,2.812v2.815a2.813,2.813,0,0,1-2.813,2.813" transform="translate(-395.891 -310.008)" fill="#fff"/>
    </g>
    <g id="TM" transform="translate(222.092 379.906)">
      <path id="M" d="M905.249,433.684h.626l.371,1.391h.016l.366-1.389h.628v2.086h-.38v-1.587l-.018,0-.4,1.594c-.122,0-.246,0-.368,0-.018,0-.044-.034-.05-.056q-.189-.741-.374-1.484a.058.058,0,0,0-.028-.039v1.578h-.386Z" transform="translate(-903.32 -433.684)" fill="#1a2552"/>
      <path id="T" d="M894,434.054V433.7h1.65v.348h-.606v1.737h-.423v-1.73Z" transform="translate(-894 -433.697)" fill="#1a2552"/>
    </g>
  </g>
</svg>

