<svg xmlns="http://www.w3.org/2000/svg" width="959.722" height="276.167" viewBox="0 0 959.722 276.167"><defs><style>.a{fill:#0857e0;}.b{fill:#fff;}.c{fill:#1a2552;}</style></defs><g transform="translate(3399.861 -1543.25)"><path class="a" d="M-3393.919,1625.451c9.342-45.2,38.087-70.373,82.923-77.978a289.207,289.207,0,0,1,99.39.158c46.165,8.16,73.918,34.8,82.759,80.681a276.181,276.181,0,0,1-.107,106.717c-9.451,44.883-38.937,72.589-83.608,80.166a289.3,289.3,0,0,1-99.39-.158c-46.165-8.161-74.042-36.132-82.882-82.011-7.179-35.691-6.488-71.753.915-107.579Z"/><path class="b" d="M-3296.3,1767.566a17.261,17.261,0,0,1-17.261-17.26v-17.244a51.839,51.839,0,0,1,51.781-51.78h17.261a17.28,17.28,0,0,0,17.26-17.26v-17.234a17.28,17.28,0,0,0-17.26-17.26h-34.522a17.281,17.281,0,0,0-17.26,17.26,17.26,17.26,0,0,1-17.26,17.26,17.26,17.26,0,0,1-17.259-17.26,51.837,51.837,0,0,1,51.779-51.779h34.522a51.837,51.837,0,0,1,51.78,51.779v17.234a51.839,51.839,0,0,1-51.78,51.78h-17.261a17.281,17.281,0,0,0-17.261,17.26v17.244A17.26,17.26,0,0,1-3296.3,1767.566Z"/><path class="c" d="M-2985.66,1655.286c0,25.928-18.659,43.013-47.729,43.013h-26.519v52.048h-29.268V1612.273h55.787c29.266,0,47.729,16.891,47.729,43.013m-29.66,0c0-10.206-6.678-17.477-19.642-17.477h-24.946v34.956h24.946c12.964,0,19.642-7.267,19.642-17.479"/><path class="c" d="M-2932.012,1727.277c12.187,0,18.377-4.313,22.69-12.19l21.191,14.063c-7.689,11.249-20.44,21.189-44.628,21.189-32.068,0-52.885-22.314-52.885-51.754a51.233,51.233,0,0,1,50.709-51.75l.3,0c31.882,0,50.82,24.939,50.82,49.689a76.184,76.184,0,0,1-.562,10.5h-74.077c3.188,12.938,13.315,20.251,26.445,20.251m22.118-38.44c-2.624-12.94-11.251-21-24-21s-22.128,7.5-24.942,21Z"/><path class="c" d="M-2766.867,1698.595c0,29.444-20.631,51.762-49.143,51.762-11.631,0-21.2-3.75-28.323-10.688v50.211h-27.76V1646.835h25.7v13.124c7.5-8.44,18.194-13.128,31.138-13.128,28.51,0,48.392,22.129,48.392,51.764m-27.573,0c0-15.756-10.691-27.383-25.322-27.383-15.38,0-25.7,11.255-25.7,27.383s10.316,27.193,25.7,27.193c14.631,0,25.322-11.439,25.322-27.193"/><path class="c" d="M-2758.206,1698.589c0-29.619,22.128-51.754,53.446-51.754,31.129,0,53.447,22.125,53.447,51.754,0,29.436-22.316,51.752-53.447,51.752-31.316,0-53.446-22.314-53.446-51.752m79.138-.19c0-15.752-10.126-26.817-25.506-26.817s-25.69,11.063-25.69,27.005c0,15.752,10.314,27,25.69,27,15.009,0,25.506-11.247,25.506-27.189"/><rect class="c" width="27.271" height="138.078" transform="translate(-2638.243 1612.269)"/><rect class="c" width="27.271" height="138.078" transform="translate(-2591.435 1612.269)"/><path class="c" d="M-2552.747,1724.271l23.444-9.006c2.628,8.626,9.753,13.687,20.814,13.687,8.251,0,13.13-3.376,13.13-9.006,0-17.255-52.7-9.005-52.7-42.945,0-18.753,15.379-30.192,39.386-30.192,19.693,0,33.947,8.063,38.072,21.755l-23.443,9.006c-2.439-6.75-7.688-10.126-15.009-10.126-7.5,0-11.627,3-11.627,8.067,0,15.937,52.887,6.375,52.887,42.756,0,19.877-16.318,32.068-41.626,32.068-21.942,0-37.7-9.005-43.325-26.068"/><path class="c" d="M-2454.232,1612.269h4.4l2.6,9.776h.114l2.571-9.76h4.4v14.651h-2.647v-11.147l-.129-.018-2.829,11.207c-.857,0-1.725.016-2.59-.018-.124,0-.308-.238-.348-.4q-1.329-5.2-2.632-10.428a.4.4,0,0,0-.2-.275v11.091h-2.712Z"/><path class="c" d="M-2467.788,1614.779v-2.5h11.607v2.442h-4.255v12.207h-2.973v-12.159Z"/></g></svg>