<svg xmlns="http://www.w3.org/2000/svg" width="276.164" height="276.167" viewBox="0 0 276.164 276.167"><defs><style>.a{fill:#e51364;}.b{fill:#fff;}</style></defs><g transform="translate(-966.92 2944)"><g transform="translate(2085 -3294.176)"><path class="a" d="M-1112.138,432.376c9.342-45.2,38.087-70.373,82.923-77.978a289.254,289.254,0,0,1,99.39.158c46.165,8.16,73.918,34.8,82.759,80.681a276.182,276.182,0,0,1-.107,106.717c-9.451,44.883-38.937,72.589-83.608,80.166a289.253,289.253,0,0,1-99.39-.158c-46.165-8.161-74.042-36.132-82.882-82.011-7.179-35.691-6.488-71.753.915-107.579Z"/></g><g transform="translate(2085 -3294.176)"><path class="b" d="M-941.3,539.982a17.2,17.2,0,0,1-12.2-5.055,17.259,17.259,0,0,1,0-24.409l16.22-16.221a8.631,8.631,0,0,0,0-12.193,8.632,8.632,0,0,0-12.193,0l-36.627,36.627a42.859,42.859,0,0,1-30.506,12.635,42.863,42.863,0,0,1-30.506-12.635,42.862,42.862,0,0,1-12.636-30.506,42.86,42.86,0,0,1,12.636-30.506l16.22-16.22a17.262,17.262,0,0,1,24.41,0,17.26,17.26,0,0,1,0,24.409l-16.22,16.22a8.586,8.586,0,0,0-2.525,6.1,8.584,8.584,0,0,0,2.525,6.1,8.579,8.579,0,0,0,6.1,2.525,8.578,8.578,0,0,0,6.1-2.525L-973.89,457.7a42.86,42.86,0,0,1,30.507-12.636A42.856,42.856,0,0,1-912.877,457.7,42.86,42.86,0,0,1-900.241,488.2a42.863,42.863,0,0,1-12.636,30.506l-16.22,16.22A17.207,17.207,0,0,1-941.3,539.982Z"/></g></g></svg>