<svg xmlns="http://www.w3.org/2000/svg" width="276.165" height="276.167" viewBox="0 0 276.165 276.167"><defs><style>.a{fill:#600add;}.b{fill:#fff;}</style></defs><g transform="translate(-2906.92 2944)"><g transform="translate(2085 -3294.176)"><path class="a" d="M827.862,432.376c9.342-45.2,38.087-70.373,82.923-77.978a289.255,289.255,0,0,1,99.39.158c46.165,8.16,73.918,34.8,82.759,80.681a276.178,276.178,0,0,1-.107,106.717c-9.451,44.883-38.937,72.589-83.608,80.166a289.253,289.253,0,0,1-99.39-.158c-46.165-8.161-74.042-36.132-82.882-82.011-7.179-35.691-6.488-71.753.915-107.579Z"/></g><g transform="translate(2085 -3294.176)"><path class="b" d="M984.629,559.618A62.841,62.841,0,0,1,939.9,541.09l-16.279-16.279a17.26,17.26,0,0,1,24.41-24.41l16.279,16.28a28.735,28.735,0,0,0,40.639,0l16.262-16.263a17.26,17.26,0,0,1,24.41,24.409l-16.263,16.263A62.843,62.843,0,0,1,984.629,559.618Z"/></g><g transform="translate(2085 -3294.176)"><path class="b" d="M984.621,483.46a17.2,17.2,0,0,1-12.2-5.055l-16.279-16.28a28.77,28.77,0,0,0-40.64,0l-16.262,16.263a17.26,17.26,0,1,1-24.41-24.409l16.263-16.263a63.329,63.329,0,0,1,89.458,0L996.826,454a17.26,17.26,0,0,1-12.205,29.464Z"/></g></g></svg>