<?xml version="1.0" standalone="no"?>
<!DOCTYPE svg PUBLIC "-//W3C//DTD SVG 20010904//EN"
 "http://www.w3.org/TR/2001/REC-SVG-20010904/DTD/svg10.dtd">
<svg version="1.0" xmlns="http://www.w3.org/2000/svg"
 width="134.000000pt" height="130.000000pt" viewBox="0 0 134.000000 130.000000"
 preserveAspectRatio="xMidYMid meet">

<g transform="translate(0.000000,130.000000) scale(0.100000,-0.100000)"
fill="#000000" stroke="none">
<path d="M657 1063 c-8 -47 -65 -143 -131 -218 -56 -65 -179 -172 -248 -218
-27 -16 -46 -32 -44 -35 9 -8 123 31 184 63 l63 33 -6 -31 c-11 -59 -57 -192
-85 -247 -15 -30 -49 -84 -75 -119 l-47 -63 43 23 c24 13 75 56 114 94 169
168 258 375 259 610 0 118 -16 181 -27 108z"/>
<path d="M418 986 c-32 -24 -20 -69 24 -92 42 -22 95 -11 111 23 10 23 8 28
-21 54 -35 32 -84 38 -114 15z"/>
<path d="M745 538 l0 -83 -77 -3 -78 -3 0 -74 0 -75 -75 0 -76 0 6 -38 c14
-77 3 -72 139 -72 l123 0 13 60 13 60 67 0 67 0 12 75 12 75 58 0 58 0 -9 -51
c-17 -92 -21 -98 -79 -101 l-51 -3 -23 -57 -24 -58 89 0 c87 0 89 1 115 31 61
73 95 183 95 307 l0 79 -46 7 c-26 3 -110 6 -188 6 l-141 0 0 -82z"/>
</g>
</svg>
