<svg xmlns="http://www.w3.org/2000/svg" xmlns:xlink="http://www.w3.org/1999/xlink" width="40px" height="30px" viewBox="0 0 40 40" version="1.1">
<g id="surface1">
<path style=" stroke:none;fill-rule:nonzero;fill:#23366d;fill-opacity:1;" d="M 14.4375 2.234375 C 13.984375 2.375 13.351562 2.84375 13.03125 3.28125 C 12.898438 3.460938 12.710938 3.828125 12.609375 4.09375 L 12.4375 4.570312 L 10.734375 4.617188 C 9.703125 4.648438 8.898438 4.703125 8.710938 4.765625 C 7.15625 5.25 5.921875 6.570312 5.539062 8.125 C 5.375 8.757812 5.375 33.742188 5.539062 34.375 C 5.9375 36.015625 7.3125 37.390625 8.914062 37.773438 C 9.664062 37.945312 30.335938 37.945312 31.085938 37.773438 C 32.6875 37.390625 34.0625 36.015625 34.460938 34.375 C 34.625 33.742188 34.625 8.757812 34.460938 8.125 C 34.078125 6.570312 32.84375 5.25 31.289062 4.765625 C 31.101562 4.703125 30.296875 4.648438 29.265625 4.617188 L 27.5625 4.570312 L 27.390625 4.09375 C 27.054688 3.179688 26.351562 2.476562 25.507812 2.226562 C 24.953125 2.054688 14.984375 2.0625 14.4375 2.234375 Z M 24.953125 4.78125 C 25.148438 5.09375 25.390625 6.015625 25.390625 6.445312 C 25.390625 7.15625 25.773438 7.109375 20 7.109375 C 14.226562 7.109375 14.609375 7.15625 14.609375 6.445312 C 14.609375 6.015625 14.851562 5.09375 15.046875 4.78125 L 15.15625 4.609375 L 24.84375 4.609375 Z M 12.21875 7.523438 C 12.453125 8.328125 13.132812 9.054688 13.96875 9.390625 L 14.414062 9.570312 L 19.6875 9.59375 C 25.203125 9.617188 25.664062 9.59375 26.28125 9.28125 C 26.96875 8.929688 27.578125 8.21875 27.78125 7.53125 L 27.898438 7.109375 L 29.21875 7.109375 C 30.5 7.109375 30.539062 7.117188 30.945312 7.328125 C 31.1875 7.453125 31.476562 7.6875 31.617188 7.875 C 32.140625 8.5625 32.109375 7.742188 32.109375 21.25 C 32.109375 34.671875 32.132812 33.914062 31.648438 34.59375 C 31.515625 34.765625 31.242188 35.007812 31.039062 35.132812 L 30.664062 35.351562 L 9.335938 35.351562 L 8.960938 35.132812 C 8.757812 35.007812 8.484375 34.765625 8.351562 34.59375 C 7.867188 33.914062 7.890625 34.671875 7.890625 21.25 C 7.890625 7.742188 7.859375 8.5625 8.382812 7.875 C 8.523438 7.6875 8.8125 7.453125 9.054688 7.328125 C 9.460938 7.117188 9.5 7.109375 10.78125 7.109375 L 12.101562 7.109375 Z M 12.21875 7.523438 "/>
<path style=" stroke:none;fill-rule:nonzero;fill:#23366d;fill-opacity:1;" d="M 16.328125 14.21875 C 16.109375 14.265625 15.78125 14.5625 14.757812 15.617188 L 13.460938 16.960938 L 13.085938 16.515625 C 12.515625 15.851562 12.164062 15.625 11.703125 15.625 C 11.0625 15.625 10.632812 15.953125 10.46875 16.570312 C 10.3125 17.140625 10.445312 17.390625 11.578125 18.570312 C 12.945312 20 13.296875 20.1875 14 19.859375 C 14.320312 19.710938 17.515625 16.414062 17.757812 15.992188 C 18.265625 15.070312 17.390625 13.976562 16.328125 14.21875 Z M 16.328125 14.21875 "/>
<path style=" stroke:none;fill-rule:nonzero;fill:#23366d;fill-opacity:1;" d="M 21.007812 16.039062 C 20.625 16.289062 20.359375 16.859375 20.429688 17.273438 C 20.5 17.6875 20.929688 18.171875 21.3125 18.28125 C 21.695312 18.382812 28.304688 18.382812 28.664062 18.28125 C 29.03125 18.179688 29.4375 17.765625 29.539062 17.40625 C 29.679688 16.875 29.390625 16.226562 28.90625 15.976562 C 28.71875 15.875 28.09375 15.859375 24.976562 15.859375 L 21.273438 15.859375 Z M 21.007812 16.039062 "/>
<path style=" stroke:none;fill-rule:nonzero;fill:#23366d;fill-opacity:1;" d="M 16.328125 24.21875 C 16.109375 24.265625 15.78125 24.5625 14.757812 25.617188 L 13.460938 26.960938 L 13.085938 26.515625 C 12.515625 25.851562 12.164062 25.625 11.703125 25.625 C 11.0625 25.625 10.632812 25.953125 10.46875 26.570312 C 10.3125 27.140625 10.445312 27.390625 11.578125 28.570312 C 12.945312 30 13.296875 30.1875 14 29.859375 C 14.320312 29.710938 17.515625 26.414062 17.757812 25.992188 C 18.265625 25.070312 17.390625 23.976562 16.328125 24.21875 Z M 16.328125 24.21875 "/>
<path style=" stroke:none;fill-rule:nonzero;fill:#23366d;fill-opacity:1;" d="M 21.007812 26.039062 C 20.625 26.289062 20.359375 26.859375 20.429688 27.273438 C 20.5 27.6875 20.929688 28.171875 21.3125 28.28125 C 21.695312 28.382812 28.304688 28.382812 28.664062 28.28125 C 29.03125 28.179688 29.4375 27.765625 29.539062 27.40625 C 29.679688 26.875 29.390625 26.226562 28.90625 25.976562 C 28.71875 25.875 28.09375 25.859375 24.976562 25.859375 L 21.273438 25.859375 Z M 21.007812 26.039062 "/>
</g>
</svg>