<svg id="Groupe_15398" data-name="Groupe 15398" xmlns="http://www.w3.org/2000/svg" width="25" height="25" viewBox="0 0 25 25">
  <g id="Groupe_15399" data-name="Groupe 15399">
    <circle id="Ellipse_3113" data-name="Ellipse 3113" cx="12.5" cy="12.5" r="12.5" fill="#fff" opacity="0"/>
    <path id="noun-message-line-4531567" d="M946.535,536.535v4.941h0a4.466,4.466,0,0,1-4.182,4.7v1.169a1.453,1.453,0,0,1-1.463,1.442,1.478,1.478,0,0,1-.813-.243l-3.555-2.338h-3.157A4.528,4.528,0,0,1,928.555,542a4.151,4.151,0,0,1,0-.52v-4.94a4.509,4.509,0,0,1,4.281-4.735,4.733,4.733,0,0,1,.528,0h8.366a4.529,4.529,0,0,1,4.81,4.215,4.578,4.578,0,0,1,0,.521Z" transform="translate(-925.047 -528.292)" fill="none" stroke="#1a2552" stroke-linecap="round" stroke-linejoin="round" stroke-width="2"/>
  </g>
</svg>

<svg width="20" height="25" viewBox="0 0 24 24" fill="none" xmlns="http://www.w3.org/2000/svg">
<g clip-path="url(#clip0)">
<path fill-rule="evenodd" clip-rule="evenodd" d="M18.0001 4C17.5318 4 17.1363 4.32296 17.029 4.75962C17.0103 4.8356 17.0001 4.91593 17.0001 5V12C17.0001 12.1936 17.0541 12.3714 17.1474 12.5229C17.325 12.8113 17.641 13 18.0001 13H21.0001C21.5524 13 22.0001 12.5523 22.0001 12V5C22.0001 4.44772 21.5524 4 21.0001 4H18.0001ZM15.4995 3.34252C16.0366 2.53355 16.9554 2 18.0001 2H21.0001C22.657 2 24.0001 3.34315 24.0001 5V12C24.0001 13.6569 22.657 15 21.0001 15H18.0001C17.2418 15 16.5498 14.7183 16.0223 14.2556C15.8001 14.3911 15.5694 14.572 15.3439 14.794C14.9316 15.1997 14.6009 15.6798 14.4142 16.1063L12.6381 20.1661C12.0241 21.5696 10.4669 22.3028 8.99389 21.8819C7.49742 21.4544 6.56025 19.9717 6.81611 18.4365L7.31967 15.4151H3.43974C1.5466 15.4151 0.126723 13.6832 0.497998 11.8268L1.64822 6.07564C1.94921 4.57071 3.09177 3.34053 4.62187 2.99614C6.71434 2.52517 8.41857 2.32927 10.2346 2.42854C11.8283 2.51565 13.4728 2.82842 15.4995 3.34252ZM15.0001 5.27923C13.0339 4.78086 11.5349 4.50259 10.1255 4.42556C8.54465 4.33915 7.03179 4.50376 5.06104 4.94733C4.33418 5.11093 3.7621 5.70432 3.60939 6.46788L2.45916 12.219C2.3354 12.8378 2.80869 13.4151 3.43974 13.4151H7.31967C8.55555 13.4151 9.49564 14.5249 9.29246 15.7439L8.7889 18.7653C8.70026 19.2971 9.02492 19.8108 9.54333 19.9589C10.0536 20.1047 10.5931 19.8507 10.8058 19.3645L12.5819 15.3047C12.8812 14.6206 13.367 13.9334 13.941 13.3685C14.264 13.0506 14.6361 12.7508 15.0436 12.5105C15.015 12.3444 15.0001 12.1738 15.0001 12V5.27923Z" fill="#1d2c59" id="id_101"></path>
</g>
<defs>
<clipPath id="clip0">
<rect width="24" height="24" fill="white" id="id_102"></rect>
</clipPath>
</defs>
</svg>

<svg width="20" height="20" viewBox="0 0 24 24" fill="none" xmlns="http://www.w3.org/2000/svg">
<path fill-rule="evenodd" clip-rule="evenodd" d="M14.4568 4.04112C13.9465 3.89532 13.4071 4.14932 13.1944 4.63551L11.4182 8.6953C11.1189 9.37937 10.6332 10.0666 10.0591 10.6315C9.73613 10.9494 9.36405 11.2492 8.95658 11.4895C8.98513 11.6556 9 11.8262 9 12V18.7208C10.9662 19.2191 12.4652 19.4974 13.8747 19.5744C15.4555 19.6609 16.9683 19.4962 18.9391 19.0527C19.666 18.8891 20.238 18.2957 20.3907 17.5321L21.541 11.781C21.6647 11.1622 21.1914 10.5849 20.5604 10.5849H16.6805C15.4446 10.5849 14.5045 9.47514 14.7077 8.25607L15.2112 5.23469C15.2999 4.70287 14.9752 4.18923 14.4568 4.04112ZM8.50064 20.6575C10.5273 21.1716 12.1718 21.4844 13.7655 21.5715C15.5816 21.6707 17.2858 21.4748 19.3783 21.0039C20.9084 20.6595 22.0509 19.4293 22.3519 17.9244L23.5021 12.1732C23.8734 10.3168 22.4535 8.58487 20.5604 8.58487L16.6805 8.58487L17.184 5.56349C17.4399 4.02832 16.5027 2.54563 15.0062 2.11807C13.5333 1.69722 11.9761 2.4304 11.362 3.83387L9.58589 7.89366C9.39928 8.3202 9.0685 8.80035 8.65628 9.20602C8.43074 9.42798 8.20006 9.6089 7.97781 9.74442C7.45036 9.28166 6.75828 9 6 9H3C1.34315 9 0 10.3431 0 12V19C0 20.6569 1.34315 22 3 22H6C7.04478 22 7.96357 21.4664 8.50064 20.6575ZM3 11C2.44772 11 2 11.4477 2 12V19C2 19.5523 2.44772 20 3 20H6C6.46838 20 6.86381 19.677 6.97116 19.2404C6.98984 19.1644 7 19.0841 7 19V12C7 11.8064 6.946 11.6286 6.85273 11.4771C6.67511 11.1887 6.35916 11 6 11H3Z" fill="#1d2c59" id="id_101"></path>
</svg>