<svg id="Groupe_15399" data-name="Groupe 15399" xmlns="http://www.w3.org/2000/svg" width="25" height="25" viewBox="0 0 25 25">
  <circle id="Ellipse_3113" data-name="Ellipse 3113" cx="12.5" cy="12.5" r="12.5" fill="#fff" opacity="0"/>
  <path id="Tracé_15341" data-name="Tracé 15341" d="M-828.492-769.843a4.494,4.494,0,0,1-.047-.992c.07-.822.117-1.669.183-2.394a8.3,8.3,0,0,0-.866,8.805,7.107,7.107,0,0,0,6.4,3.8,7.367,7.367,0,0,0,6.7-7.928,7.758,7.758,0,0,0-.09-.781,10.225,10.225,0,0,0-2.968-5.346c-.645-.662-1.239-1.281-1.869-1.911-.655-.653-1.332-1.306-1.987-2.032a6.351,6.351,0,0,0,.281,4.862l.28.581c.141.29.281.581.42.9a4.17,4.17,0,0,1-.14,3.58,3.219,3.219,0,0,1-3.387,1.645,3.566,3.566,0,0,1-2.921-2.781Z" transform="translate(835.6 782.125)" fill="none" stroke="#1a2552" stroke-linecap="round" stroke-linejoin="round" stroke-width="1.8"/>
</svg>
